<?xml version="1.0" standalone="no"?>
<!DOCTYPE svg PUBLIC "-//W3C//DTD SVG 20010904//EN"
 "http://www.w3.org/TR/2001/REC-SVG-20010904/DTD/svg10.dtd">
<svg version="1.0" xmlns="http://www.w3.org/2000/svg"
 width="1000.000000pt" height="1000.000000pt" viewBox="0 0 1000.000000 1000.000000"
 preserveAspectRatio="xMidYMid meet">

<g transform="translate(0.000000,1000.000000) scale(0.100000,-0.100000)"
fill="#000000" stroke="none">
<path d="M2305 9994 c-166 -20 -229 -30 -348 -56 -920 -198 -1660 -924 -1887
-1850 -70 -287 -65 -39 -65 -3088 0 -2604 1 -2751 18 -2858 187 -1161 1100
-2022 2260 -2132 77 -8 955 -10 2797 -8 2963 4 2717 -1 2995 65 912 216 1631
932 1855 1845 70 287 65 40 65 3078 0 2910 2 2776 -47 3010 -203 973 -951
1729 -1924 1944 -244 54 -35 50 -2979 52 -1490 1 -2723 0 -2740 -2z m6315
-1017 c136 -46 243 -137 303 -259 136 -275 -3 -594 -303 -695 -53 -17 -167
-18 -2780 -23 l-2725 -6 -138 -31 c-111 -26 -160 -43 -255 -90 -202 -100 -398
-266 -495 -418 -101 -159 -187 -358 -209 -485 -7 -46 -11 -768 -12 -2517 l-2
-2452 1260 -3 c1260 -3 1261 -3 1323 -24 211 -73 348 -262 346 -479 -2 -217
-146 -407 -358 -472 -57 -17 -137 -18 -1600 -18 -1473 0 -1543 1 -1608 19
-123 34 -255 143 -311 259 -58 118 -57 78 -53 1520 2 727 4 1950 5 2717 1
1528 -1 1463 63 1745 17 77 41 165 54 195 12 30 26 66 30 80 4 13 23 57 41 97
19 40 34 76 34 80 0 8 61 113 133 228 91 144 183 258 313 386 315 309 686 515
1075 598 273 58 212 55 1204 61 506 3 1750 5 2765 5 1766 0 1847 -1 1900 -18z
m-40 -1288 c180 -28 335 -165 397 -349 17 -53 18 -148 21 -2240 2 -1518 -1
-2211 -8 -2270 -15 -121 -49 -275 -75 -345 -12 -33 -42 -114 -66 -179 -44
-120 -119 -264 -193 -368 -23 -31 -53 -76 -68 -100 -48 -79 -293 -323 -406
-406 -195 -143 -291 -197 -497 -281 -262 -106 -474 -144 -815 -145 -207 0
-235 2 -353 26 -118 25 -230 60 -431 137 -85 32 -227 111 -318 176 -31 22 -76
52 -100 67 -24 15 -108 89 -188 166 -112 107 -169 172 -250 283 -112 155 -118
164 -185 310 -164 361 -208 563 -209 959 0 208 2 235 27 359 16 74 39 162 51
195 13 34 43 115 67 180 44 120 119 264 193 368 23 31 52 75 66 98 14 23 97
114 185 203 154 156 335 302 443 358 223 116 499 218 632 234 30 4 97 16 149
26 166 34 515 23 706 -22 183 -42 417 -132 572 -217 l72 -40 3 1206 c3 1140 4
1210 22 1262 45 136 136 243 259 303 103 51 186 64 297 46z m-1943 -715 c211
-73 348 -262 346 -479 -2 -217 -146 -407 -358 -472 -57 -17 -138 -18 -1630
-18 -1492 0 -1573 1 -1630 18 -212 65 -356 255 -358 472 -1 136 41 241 136
342 81 86 168 133 282 152 28 5 748 8 1600 7 l1550 -1 62 -21z m-1153 -1982
c-5 -5 -45 -38 -89 -74 -44 -36 -128 -115 -186 -175 -185 -189 -297 -345 -420
-588 l-77 -150 -643 0 c-595 0 -649 1 -704 18 -212 65 -356 255 -358 472 -1
136 41 241 136 342 81 86 168 133 282 152 65 11 2072 14 2059 3z"/>
<path d="M6765 4164 c-141 -24 -170 -32 -289 -83 -192 -83 -353 -216 -474
-394 -66 -97 -90 -145 -123 -252 -54 -172 -60 -222 -49 -379 15 -227 27 -274
113 -466 62 -138 218 -314 370 -418 94 -64 133 -83 247 -120 170 -56 224 -63
384 -52 189 13 250 24 351 65 231 93 402 225 525 406 75 112 90 141 136 279
36 110 38 122 42 270 6 250 -22 379 -125 585 -98 195 -286 373 -498 471 -212
98 -394 124 -610 88z"/>
</g>
</svg>
