<?xml version="1.0" standalone="no"?>
<!DOCTYPE svg PUBLIC "-//W3C//DTD SVG 20010904//EN"
 "http://www.w3.org/TR/2001/REC-SVG-20010904/DTD/svg10.dtd">
<svg version="1.0" xmlns="http://www.w3.org/2000/svg"
 width="840.000000pt" height="322.000000pt" viewBox="0 0 840.000000 322.000000"
 preserveAspectRatio="xMidYMid meet">

<g transform="translate(0.000000,322.000000) scale(0.100000,-0.100000)"
fill="#000000" stroke="none">
<path d="M720 3084 c-74 -11 -141 -29 -194 -51 -189 -79 -344 -241 -418 -439
l-33 -89 -3 -943 c-3 -1051 -7 -984 66 -1040 l35 -27 526 -2 526 -3 40 23
c113 64 111 226 -5 285 -44 22 -49 22 -452 22 l-408 0 0 804 c0 548 3 814 11
837 42 133 135 231 269 284 15 6 381 11 946 15 l920 5 41 27 c98 65 98 199 0
272 -28 21 -32 21 -935 22 -499 1 -918 0 -932 -2z"/>
<path d="M2430 2648 c-26 -14 -53 -37 -65 -58 -19 -33 -20 -55 -23 -432 -2
-219 -5 -398 -8 -398 -2 0 -26 11 -52 24 -70 35 -146 55 -237 62 -346 27 -660
-216 -725 -560 -15 -80 -7 -217 16 -298 61 -203 221 -380 414 -455 168 -65
362 -55 536 28 138 66 282 218 338 359 45 111 45 120 46 885 l0 731 -22 44
c-26 50 -89 90 -143 90 -17 0 -51 -10 -75 -22z m-290 -1160 c71 -35 135 -99
168 -168 22 -48 26 -68 26 -155 1 -87 -2 -106 -23 -145 -38 -71 -69 -107 -119
-137 -78 -46 -104 -55 -187 -60 -114 -7 -179 18 -260 101 -77 80 -100 138
-100 256 0 73 4 93 28 142 29 58 110 141 157 161 111 45 224 47 310 5z"/>
<path d="M815 2426 c-122 -53 -126 -233 -8 -292 35 -18 73 -19 541 -22 329 -2
516 1 542 8 53 14 94 51 115 102 20 51 14 98 -20 149 -46 71 -32 69 -617 69
-412 -1 -529 -4 -553 -14z"/>
<path d="M4307 2106 c-83 -31 -107 -76 -107 -203 1 -168 51 -217 222 -216 98
1 148 19 182 66 18 25 21 43 21 147 0 132 -9 156 -75 195 -44 25 -187 32 -243
11z"/>
<path d="M4915 2106 c-41 -18 -83 -69 -90 -109 -3 -18 -5 -302 -3 -632 3 -599
4 -600 27 -670 29 -88 81 -142 166 -175 52 -20 79 -23 200 -24 160 -1 184 7
213 72 24 54 23 225 -1 270 -24 44 -72 72 -123 72 -35 0 -43 4 -48 23 -3 12
-6 257 -6 545 0 500 -1 524 -20 561 -30 59 -84 81 -196 81 -51 -1 -102 -6
-119 -14z"/>
<path d="M5687 2106 c-83 -31 -107 -76 -107 -203 1 -168 51 -217 222 -216 98
1 148 19 182 66 18 25 21 43 21 147 0 132 -9 156 -75 195 -44 25 -187 32 -243
11z"/>
<path d="M6637 2100 c-87 -28 -159 -80 -212 -154 -58 -81 -84 -155 -92 -257
l-6 -79 -36 0 c-46 0 -95 -30 -117 -72 -22 -41 -30 -169 -15 -225 18 -66 53
-100 116 -113 l54 -11 3 -287 c3 -267 4 -290 24 -327 13 -27 35 -47 65 -63 39
-21 55 -23 146 -20 114 4 141 16 178 79 19 32 20 55 23 325 l3 292 92 4 c102
4 143 20 181 71 31 42 36 206 7 271 -29 66 -84 91 -198 89 l-83 -1 0 33 0 33
74 4 c89 4 119 22 154 89 21 39 23 55 20 139 -4 110 -20 146 -78 179 -51 28
-216 29 -303 1z"/>
<path d="M799 1767 c-58 -39 -81 -83 -77 -148 5 -66 31 -108 85 -135 34 -17
63 -19 253 -19 l214 0 45 80 c29 51 73 109 126 162 l82 83 -347 0 c-344 0
-347 0 -381 -23z"/>
<path d="M7324 1622 c-105 -51 -164 -116 -164 -183 0 -42 17 -73 238 -446
l192 -322 -79 -178 c-92 -208 -110 -265 -100 -311 22 -105 245 -200 336 -143
18 11 39 31 48 45 39 59 564 1251 555 1260 -6 6 0 20 15 38 49 59 23 144 -60
199 -60 39 -120 59 -176 59 -65 0 -103 -20 -133 -73 -32 -56 -162 -344 -178
-396 -7 -23 -16 -41 -19 -41 -3 0 -18 28 -33 63 -44 103 -222 400 -256 426
-48 38 -112 39 -186 3z"/>
<path d="M3293 1615 c-93 -20 -158 -60 -248 -150 -131 -130 -182 -260 -172
-435 9 -161 67 -282 192 -398 108 -101 242 -152 367 -138 77 9 117 24 150 54
24 22 28 23 34 9 3 -9 27 -26 52 -39 38 -18 64 -22 137 -22 112 -1 156 18 188
78 22 40 22 47 22 486 0 439 0 446 -22 486 -27 51 -71 73 -162 81 -90 8 -163
-10 -195 -47 -22 -27 -25 -28 -46 -13 -71 50 -198 71 -297 48z m213 -444 c32
-20 64 -74 64 -111 0 -36 -31 -91 -64 -112 -23 -14 -43 -18 -80 -15 -42 4 -55
10 -83 41 -28 31 -33 43 -33 87 0 46 4 55 39 90 33 33 45 39 82 39 25 0 57 -8
75 -19z"/>
<path d="M4343 1620 c-70 -15 -103 -38 -124 -86 -19 -41 -20 -66 -17 -493 3
-439 3 -450 24 -478 41 -54 79 -68 189 -68 119 0 161 16 193 74 22 38 22 46
22 487 0 507 1 499 -75 541 -47 25 -148 37 -212 23z"/>
<path d="M5723 1620 c-70 -15 -103 -38 -124 -86 -19 -41 -20 -66 -17 -493 3
-439 3 -450 24 -478 41 -54 79 -68 189 -68 119 0 161 16 193 74 22 38 22 46
22 487 0 507 1 499 -75 541 -47 25 -148 37 -212 23z"/>
</g>
</svg>
